/vscmnt/brussel_pixiu_data/_data_brussel/112/vsc11236/PredSimResults/SUBJ07mtu3D/worker9.mot
version=1
nRows=7
nColumns=50
inDegrees=yes
endheader
                time	         pelvis_tilt	         pelvis_list	     pelvis_rotation	           pelvis_tx	           pelvis_ty	           pelvis_tz	       hip_flexion_r	     hip_adduction_r	      hip_rotation_r	        knee_angle_r	       ankle_angle_r	         mtp_angle_r	       hip_flexion_l	     hip_adduction_l	      hip_rotation_l	        knee_angle_l	       ankle_angle_l	         mtp_angle_l	    lumbar_extension	      lumbar_bending	     lumbar_rotation	 ercspn_r/activation	 intobl_r/activation	 extobl_r/activation	    abd_r/activation	    add_r/activation	hamstrings_r/activation	bifemsh_r/activation	glut_max_r/activation	iliopsoas_r/activation	rect_fem_r/activation	  vasti_r/activation	gastroc_r/activation	 soleus_r/activation	tib_ant_r/activation	 ercspn_l/activation	 intobl_l/activation	 extobl_l/activation	    abd_l/activation	    add_l/activation	hamstrings_l/activation	bifemsh_l/activation	glut_max_l/activation	iliopsoas_l/activation	rect_fem_l/activation	  vasti_l/activation	gastroc_l/activation	 soleus_l/activation	tib_ant_l/activation	
          1.11092385	         -3.51458927	         -0.17998087	          8.51123318	          1.35532710	          0.84955015	         -0.01292051	         29.56090030	         -2.25150567	         -4.37714991	         -7.09174062	          2.41318173	          0.26813816	        -15.30809908	         -0.14090868	          3.90467736	         -8.98023573	          7.98486332	         28.19212754	        -11.04792667	         -1.60611354	         -1.00405692	          0.12223406	          0.13525089	          0.01000000	          0.01190438	          0.14096102	          0.06933453	          0.11461355	          0.09018161	          0.03284158	          0.01000042	          0.00999999	          0.01000000	          0.01000005	          0.39069532	          0.12394753	          0.00999999	          0.00999999	          0.03284151	          0.01910813	          0.01699445	          0.14223205	          0.01789663	          0.25398314	          0.01185155	          0.01185153	          0.13341526	          0.29465641	          0.01841243	
          1.12203309	         -3.52362582	         -0.14705913	          8.52690734	          1.37114988	          0.84807674	         -0.01261135	         29.32374278	         -2.03284012	         -4.01986756	         -8.54076469	          2.07324213	          0.25085087	        -15.74248349	         -0.22332406	          3.56439931	        -10.06906130	          7.00589157	         29.76028181	        -10.94526640	         -1.20287546	         -1.21852154	          0.10313771	          0.12844465	          0.00999999	          0.01369912	          0.11893899	          0.06603931	          0.12576522	          0.13198518	          0.02771081	          0.01000000	          0.00999999	          0.01404589	          0.01185153	          0.43659209	          0.13920269	          0.00999999	          0.01000001	          0.02771075	          0.03289101	          0.01433967	          0.12001146	          0.01510068	          0.21430393	          0.01000002	          0.01000000	          0.11257209	          0.27551383	          0.01553590	
          1.13314233	         -3.52477269	         -0.10784434	          8.49017260	          1.38711624	          0.84682168	         -0.01221119	         29.00417251	         -1.86570510	         -3.68785286	         -9.87405888	          1.62878405	          0.24542584	        -16.01868246	         -0.28379666	          3.17847929	        -11.46464333	          5.92008493	         31.26353851	        -10.84136797	         -0.80573626	         -1.42667591	          0.13984003	          0.10837803	          0.01000000	          0.09796799	          0.13642655	          0.06046902	          0.10611732	          0.12840668	          0.02338161	          0.01000000	          0.00999999	          0.01185154	          0.00999999	          0.50548610	          0.15486733	          0.00999999	          0.01000000	          0.02338156	          0.02775253	          0.01209966	          0.10126234	          0.01274154	          0.18082372	          0.01000008	          0.01000001	          0.09498520	          0.25302082	          0.01310876	
          1.14425156	         -3.51914450	         -0.04772649	          8.40499624	          1.40304507	          0.84594081	         -0.01171414	         28.69100296	         -1.71885500	         -3.41603459	        -11.21019176	          1.16339858	          0.22630529	        -16.06472914	         -0.30746866	          2.75951449	        -13.26274660	          4.70043988	         32.63911896	        -10.75512071	         -0.43028326	         -1.62701138	          0.15169982	          0.09144637	          0.00999999	          0.14563135	          0.15954963	          0.05310564	          0.08953885	          0.15314441	          0.01972876	          0.01000000	          0.00999999	          0.01000000	          0.00999999	          0.53256294	          0.19222305	          0.00999999	          0.01000000	          0.01972871	          0.03186098	          0.01090667	          0.08544235	          0.01075096	          0.15257404	          0.01000006	          0.01000001	          0.08014587	          0.22162595	          0.01106081	
          1.15536080	         -3.50679111	          0.02519103	          8.27703821	          1.41880202	          0.84557062	         -0.01113146	         28.44398355	         -1.58098577	         -3.18706417	        -12.69675848	          0.94545811	          0.20602878	        -15.81324741	         -0.30376928	          2.31207452	        -15.55679117	          3.36143543	         33.73242694	        -10.69321611	         -0.06877932	         -1.81738020	          0.16001271	          0.07715991	          0.00999999	          0.18480358	          0.18345019	          0.04786179	          0.07555040	          0.17516961	          0.01664658	          0.01000000	          0.02581672	          0.01000000	          0.00999999	          0.53078264	          0.23119558	          0.00999999	          0.01000000	          0.01664654	          0.05192223	          0.01213495	          0.07209389	          0.00999999	          0.12873774	          0.01000001	          0.00999999	          0.06762486	          0.18700182	          0.00999999	
          1.16647004	         -3.48900422	          0.10768670	          8.10740605	          1.43428399	          0.84584240	         -0.01047705	         28.24841609	         -1.45036891	         -3.00100452	        -14.29531615	          1.02751094	          0.18569765	        -15.19768338	         -0.27690830	          1.82823835	        -18.43728122	          1.91879544	         34.32064418	        -10.65818588	          0.27947583	         -1.99466135	          0.16763638	          0.06510539	          0.00999999	          0.20414810	          0.20524983	          0.04587333	          0.06374734	          0.18521008	          0.01404592	          0.01000000	          0.04895834	          0.01000000	          0.00999999	          0.50264551	          0.25508953	          0.00999999	          0.01000000	          0.01404589	          0.08108519	          0.01312172	          0.06083083	          0.00999999	          0.10862534	          0.01000001	          0.00999999	          0.05705998	          0.15778694	          0.00999999	
          1.17757928	         -3.46723298	          0.19938770	          7.89696833	          1.44947172	          0.84679217	         -0.00977213	         28.02742002	         -1.32258012	         -2.84295079	        -15.85818668	          1.39991581	          0.17483424	        -14.17927901	         -0.23299467	          1.31102324	        -21.94279266	          0.32804517	         34.24838914	        -10.64298403	          0.61337859	         -2.15520476	          0.16705478	          0.05493412	          0.00999999	          0.20931704	          0.21529985	          0.04500467	          0.05378824	          0.18755559	          0.01185156	          0.01000000	          0.06790670	          0.01000000	          0.00999999	          0.44537402	          0.26271761	          0.00999999	          0.01000000	          0.01185153	          0.10686260	          0.01356443	          0.05132737	          0.00999999	          0.09165504	          0.01000000	          0.00999999	          0.04814563	          0.13313624	          0.00999999	
